<?xml version="1.0" standalone="no"?>
<!DOCTYPE svg PUBLIC "-//W3C//DTD SVG 20010904//EN"
 "http://www.w3.org/TR/2001/REC-SVG-20010904/DTD/svg10.dtd">
<svg version="1.0" xmlns="http://www.w3.org/2000/svg"
 width="414.000000pt" height="256.000000pt" viewBox="0 0 414.000000 256.000000"
 preserveAspectRatio="xMidYMid meet">

<g transform="translate(0.000000,256.000000) scale(0.100000,-0.100000)"
fill="#000000" stroke="none">
<path d="M592 2389 l3 -172 55 0 55 0 3 57 3 56 49 0 49 0 3 -56 3 -57 55 0
55 0 3 172 2 171 -60 0 -60 0 0 -55 0 -55 -50 0 -50 0 0 55 0 55 -60 0 -60 0
2 -171z"/>
<path d="M980 2505 l0 -55 35 -1 c19 -1 41 -2 48 -3 8 -1 13 -34 17 -115 l5
-114 53 0 53 0 2 114 2 114 50 1 50 1 3 57 3 56 -161 0 -160 0 0 -55z"/>
<path d="M1350 2388 l0 -173 52 1 53 2 5 81 5 81 35 -55 c19 -30 38 -55 42
-55 4 0 22 25 40 55 l33 56 5 -82 5 -82 55 0 55 0 3 172 2 171 -63 0 -63 0
-36 -61 -35 -61 -37 61 -37 61 -60 0 -59 0 0 -172z"/>
<path d="M1790 2392 c0 -93 2 -171 4 -173 2 -2 65 -3 140 -1 l136 3 0 55 0 54
-80 0 -80 0 0 115 0 115 -60 0 -60 0 0 -168z"/>
<path d="M2550 1980 l0 -140 115 0 115 0 0 45 0 44 -62 3 -63 3 0 45 0 45 63
3 62 3 0 44 0 45 -115 0 -115 0 0 -140z"/>
<path d="M2890 2066 c0 -47 3 -55 40 -91 22 -21 40 -43 40 -47 0 -4 -18 -8
-40 -8 l-40 0 0 -40 0 -40 111 0 112 0 -5 44 c-4 32 -16 57 -43 90 l-37 46 41
0 42 0 -3 48 -3 47 -107 2 -108 2 0 -53z"/>
<path d="M3220 2071 c0 -46 4 -56 40 -95 22 -24 40 -46 40 -50 0 -3 -18 -6
-40 -6 l-40 0 0 -40 0 -40 115 0 115 0 0 40 c0 35 -7 48 -46 90 l-47 50 47 0
46 0 0 45 0 45 -99 0 c-55 0 -106 3 -115 6 -13 5 -16 -2 -16 -45z"/>
<path d="M430 2037 c0 -24 160 -1812 163 -1821 2 -5 168 -55 369 -110 l366
-102 366 101 c201 56 368 104 370 106 4 4 166 1791 166 1827 0 9 -187 12 -900
12 -746 0 -900 -2 -900 -13z m1443 -144 c-95 -2 -251 -2 -345 0 -95 1 -18 3
172 3 190 0 267 -2 173 -3z m23 -310 c-4 -54 -10 -106 -12 -115 -5 -17 -34
-18 -437 -18 l-432 0 9 -115 9 -115 414 6 413 7 0 -25 c0 -63 -61 -683 -67
-689 -5 -3 -110 -35 -235 -69 l-227 -63 -228 63 c-125 35 -231 66 -236 70 -6
6 -37 281 -37 338 0 22 1 23 118 20 l117 -3 8 -85 c4 -46 12 -87 17 -90 5 -3
61 -19 124 -35 127 -32 100 -34 287 16 l75 20 12 127 c7 70 12 135 12 145 0
16 -25 17 -390 17 l-389 0 -5 33 c-7 43 -56 595 -56 630 l0 27 571 0 571 0 -6
-97z m21 30 c-2 -16 -4 -5 -4 22 0 28 2 40 4 28 2 -13 2 -35 0 -50z m-10 -125
c-2 -18 -4 -6 -4 27 0 33 2 48 4 33 2 -15 2 -42 0 -60z m120 10 c-3 -8 -6 -5
-6 6 -1 11 2 17 5 13 3 -3 4 -12 1 -19z m-305 -75 c-73 -2 -190 -2 -260 0 -70
1 -10 3 133 3 143 0 200 -2 127 -3z m11 -180 c-72 -2 -194 -2 -270 0 -76 1
-16 3 132 3 149 0 211 -2 138 -3z m144 -85 c-2 -13 -4 -3 -4 22 0 25 2 35 4
23 2 -13 2 -33 0 -45z m-10 -115 c-2 -16 -4 -3 -4 27 0 30 2 43 4 28 2 -16 2
-40 0 -55z m-17 -198 c-7 -80 -15 -144 -17 -141 -3 2 1 70 8 150 7 80 15 143
18 141 2 -3 -2 -70 -9 -150z m-263 88 c-3 -10 -5 -2 -5 17 0 19 2 27 5 18 2
-10 2 -26 0 -35z m-69 30 c-32 -2 -86 -2 -120 0 -35 2 -9 3 57 3 66 0 94 -1
63 -3z m57 -150 c-7 -96 -14 -113 -45 -112 -9 0 -6 4 6 9 19 7 22 19 29 104 4
53 9 96 12 96 3 0 2 -44 -2 -97z m-68 -119 c-3 -3 -12 -4 -19 -1 -8 3 -5 6 6
6 11 1 17 -2 13 -5z m-77 -20 c-25 -7 -49 -13 -55 -13 -18 1 59 27 80 28 11 0
0 -7 -25 -15z m397 -76 c-2 -18 -4 -6 -4 27 0 33 2 48 4 33 2 -15 2 -42 0 -60z
m120 10 c-3 -8 -6 -5 -6 6 -1 11 2 17 5 13 3 -3 4 -12 1 -19z m-130 -80 c-3
-8 -6 -5 -6 6 -1 11 2 17 5 13 3 -3 4 -12 1 -19z m-57 -43 c-19 -7 -44 -13
-55 -13 -11 0 -2 6 20 13 52 18 80 17 35 0z m-83 -21 c-3 -3 -12 -4 -19 -1 -8
3 -5 6 6 6 11 1 17 -2 13 -5z m-67 -19 c-19 -7 -42 -13 -50 -13 -8 0 1 6 20
13 19 7 42 13 50 13 8 0 -1 -6 -20 -13z m-73 -21 c-3 -3 -12 -4 -19 -1 -8 3
-5 6 6 6 11 1 17 -2 13 -5z m-87 -24 c-30 -11 -64 -19 -75 -19 -22 1 91 37
115 37 8 0 -10 -8 -40 -18z"/>
<path d="M2358 1693 c-72 -3 -98 -7 -98 -17 0 -7 9 -102 19 -212 11 -109 23
-235 26 -279 8 -113 43 -493 60 -665 8 -80 17 -188 21 -242 l7 -96 96 -26 c53
-15 161 -45 241 -67 80 -21 168 -46 196 -54 63 -19 84 -19 148 0 69 20 254 71
404 110 67 18 125 34 127 37 2 2 9 60 15 129 6 68 22 239 35 379 13 140 34
367 45 504 12 137 27 307 34 378 l12 128 -645 -2 c-355 -1 -690 -4 -743 -5z
m1252 -131 c0 -10 -13 -164 -30 -342 -16 -179 -41 -462 -56 -630 -14 -168 -28
-307 -30 -309 -1 -2 -103 -31 -226 -66 -123 -34 -233 -65 -246 -69 l-23 -8 3
96 3 96 -55 15 c-218 60 -317 90 -326 97 -6 4 -14 45 -18 91 -3 45 -9 110 -13
145 l-6 62 95 0 95 0 7 -37 c3 -21 6 -54 6 -74 0 -40 -10 -34 148 -80 l62 -18
0 150 0 149 -209 0 -210 0 -5 53 c-4 28 -7 72 -9 96 l-2 43 80 33 c249 101
330 136 337 143 4 4 -90 6 -209 4 -119 -1 -219 1 -223 5 -4 4 -11 47 -14 96
l-7 87 235 0 236 0 0 95 0 95 305 0 c286 0 305 -1 305 -18z"/>
</g>
</svg>
