<?xml version="1.0" standalone="no"?>
<!DOCTYPE svg PUBLIC "-//W3C//DTD SVG 20010904//EN"
 "http://www.w3.org/TR/2001/REC-SVG-20010904/DTD/svg10.dtd">
<svg version="1.0" xmlns="http://www.w3.org/2000/svg"
 width="640.000000pt" height="438.000000pt" viewBox="0 0 640.000000 438.000000"
 preserveAspectRatio="xMidYMid meet">

<g transform="translate(0.000000,438.000000) scale(0.100000,-0.100000)"
fill="#000000" stroke="none">
<path d="M1290 4369 c-52 -5 -346 -29 -653 -54 -392 -32 -567 -49 -586 -60
-43 -21 -57 -64 -41 -123 19 -68 123 -295 1246 -2721 62 -135 126 -263 142
-286 39 -55 117 -95 186 -95 64 0 88 6 823 196 331 86 608 154 615 151 7 -2
91 -146 187 -318 404 -727 542 -960 596 -1007 59 -53 100 -59 202 -32 104 27
752 256 1758 620 450 163 460 167 488 198 34 37 63 -7 -472 711 -182 245 -330
446 -328 447 1 1 198 55 437 118 239 64 448 121 463 128 40 16 50 40 29 69
-38 54 -727 907 -766 947 -51 54 -84 72 -134 72 -21 0 -254 -36 -518 -80 -510
-86 -531 -91 -527 -143 1 -15 133 -212 327 -487 179 -253 326 -464 326 -468 0
-6 -1909 -467 -1933 -467 -5 0 -357 583 -783 1295 -426 712 -786 1309 -800
1327 -14 18 -36 40 -49 49 -31 20 -115 25 -235 13z m852 -1434 c402 -693 733
-1272 735 -1286 3 -15 1 -29 -5 -33 -23 -14 -1235 -297 -1242 -289 -4 4 -124
251 -267 548 -143 297 -441 912 -662 1367 -220 455 -401 836 -401 847 0 12 6
21 13 22 6 0 223 20 482 44 259 23 503 42 543 41 l74 -1 730 -1260z m3392 202
c49 -51 566 -715 566 -727 0 -6 -10 -15 -22 -20 -42 -18 -769 -192 -781 -187
-7 2 -142 183 -301 401 -264 363 -303 425 -269 426 4 0 175 31 378 69 204 38
376 69 384 70 7 0 27 -14 45 -32z m-161 -1349 c69 -95 222 -306 341 -468 119
-162 216 -303 216 -312 0 -10 -9 -22 -21 -28 -16 -9 -865 -299 -1769 -605
-109 -36 -162 -50 -177 -44 -26 9 -55 51 -165 239 -202 342 -508 872 -508 879
0 4 316 90 703 190 386 101 817 214 957 251 140 37 265 68 276 69 17 1 49 -37
147 -171z"/>
</g>
</svg>
